<svg xmlns="http://www.w3.org/2000/svg" viewBox="0 0 800 400">
  <!-- Title -->
  <text x="400" y="30" font-family="Arial, sans-serif" font-size="20" font-weight="bold" text-anchor="middle" fill="#2c3e50">
    Gold Leaf - Incredibly Thin!
  </text>

  <!-- Stack of gold leaves visualization -->
  <g>
    <text x="200" y="80" font-family="Arial, sans-serif" font-size="16" text-anchor="middle" fill="#2c3e50" font-weight="bold">
      282,000 sheets = 1 inch
    </text>

    <!-- Brace showing 1 inch -->
    <path d="M 70 100 Q 60 150 70 200" stroke="#e74c3c" stroke-width="2" fill="none"/>
    <text x="45" y="155" font-family="Arial, sans-serif" font-size="14" text-anchor="middle" fill="#e74c3c" font-weight="bold">
      1"
    </text>

    <!-- Stack of many thin lines representing gold leaves -->
    <g id="goldStack">
      <!-- Draw many thin horizontal lines -->
      <rect x="90" y="100" width="220" height="1" fill="#f39c12" opacity="0.8"/>
      <rect x="90" y="102" width="220" height="1" fill="#f39c12" opacity="0.8"/>
      <rect x="90" y="104" width="220" height="1" fill="#f39c12" opacity="0.8"/>
      <rect x="90" y="106" width="220" height="1" fill="#f39c12" opacity="0.8"/>
      <rect x="90" y="108" width="220" height="1" fill="#f39c12" opacity="0.8"/>
      <rect x="90" y="110" width="220" height="1" fill="#f39c12" opacity="0.8"/>
      <rect x="90" y="112" width="220" height="1" fill="#f39c12" opacity="0.8"/>
      <rect x="90" y="114" width="220" height="1" fill="#f39c12" opacity="0.8"/>
      <rect x="90" y="116" width="220" height="1" fill="#f39c12" opacity="0.8"/>
      <rect x="90" y="118" width="220" height="1" fill="#f39c12" opacity="0.8"/>
      <rect x="90" y="120" width="220" height="1" fill="#f39c12" opacity="0.8"/>
      <rect x="90" y="122" width="220" height="1" fill="#f39c12" opacity="0.8"/>
      <rect x="90" y="124" width="220" height="1" fill="#f39c12" opacity="0.8"/>
      <rect x="90" y="126" width="220" height="1" fill="#f39c12" opacity="0.8"/>
      <rect x="90" y="128" width="220" height="1" fill="#f39c12" opacity="0.8"/>
      <rect x="90" y="130" width="220" height="1" fill="#f39c12" opacity="0.8"/>
      <rect x="90" y="132" width="220" height="1" fill="#f39c12" opacity="0.8"/>
      <rect x="90" y="134" width="220" height="1" fill="#f39c12" opacity="0.8"/>
      <rect x="90" y="136" width="220" height="1" fill="#f39c12" opacity="0.8"/>
      <rect x="90" y="138" width="220" height="1" fill="#f39c12" opacity="0.8"/>
      <rect x="90" y="140" width="220" height="1" fill="#f39c12" opacity="0.8"/>
      <rect x="90" y="142" width="220" height="1" fill="#f39c12" opacity="0.8"/>
      <rect x="90" y="144" width="220" height="1" fill="#f39c12" opacity="0.8"/>
      <rect x="90" y="146" width="220" height="1" fill="#f39c12" opacity="0.8"/>
      <rect x="90" y="148" width="220" height="1" fill="#f39c12" opacity="0.8"/>
      <rect x="90" y="150" width="220" height="1" fill="#f39c12" opacity="0.8"/>
      <rect x="90" y="152" width="220" height="1" fill="#f39c12" opacity="0.8"/>
      <rect x="90" y="154" width="220" height="1" fill="#f39c12" opacity="0.8"/>
      <rect x="90" y="156" width="220" height="1" fill="#f39c12" opacity="0.8"/>
      <rect x="90" y="158" width="220" height="1" fill="#f39c12" opacity="0.8"/>
      <rect x="90" y="160" width="220" height="1" fill="#f39c12" opacity="0.8"/>
      <rect x="90" y="162" width="220" height="1" fill="#f39c12" opacity="0.8"/>
      <rect x="90" y="164" width="220" height="1" fill="#f39c12" opacity="0.8"/>
      <rect x="90" y="166" width="220" height="1" fill="#f39c12" opacity="0.8"/>
      <rect x="90" y="168" width="220" height="1" fill="#f39c12" opacity="0.8"/>
      <rect x="90" y="170" width="220" height="1" fill="#f39c12" opacity="0.8"/>
      <rect x="90" y="172" width="220" height="1" fill="#f39c12" opacity="0.8"/>
      <rect x="90" y="174" width="220" height="1" fill="#f39c12" opacity="0.8"/>
      <rect x="90" y="176" width="220" height="1" fill="#f39c12" opacity="0.8"/>
      <rect x="90" y="178" width="220" height="1" fill="#f39c12" opacity="0.8"/>
      <rect x="90" y="180" width="220" height="1" fill="#f39c12" opacity="0.8"/>
      <rect x="90" y="182" width="220" height="1" fill="#f39c12" opacity="0.8"/>
      <rect x="90" y="184" width="220" height="1" fill="#f39c12" opacity="0.8"/>
      <rect x="90" y="186" width="220" height="1" fill="#f39c12" opacity="0.8"/>
      <rect x="90" y="188" width="220" height="1" fill="#f39c12" opacity="0.8"/>
      <rect x="90" y="190" width="220" height="1" fill="#f39c12" opacity="0.8"/>
      <rect x="90" y="192" width="220" height="1" fill="#f39c12" opacity="0.8"/>
      <rect x="90" y="194" width="220" height="1" fill="#f39c12" opacity="0.8"/>
      <rect x="90" y="196" width="220" height="1" fill="#f39c12" opacity="0.8"/>
      <rect x="90" y="198" width="220" height="1" fill="#f39c12" opacity="0.8"/>
      <rect x="90" y="200" width="220" height="1" fill="#f39c12" opacity="0.8"/>
    </g>

    <text x="200" y="230" font-family="Arial, sans-serif" font-size="14" text-anchor="middle" fill="#7f8c8d" font-style="italic">
      (Not to actual scale!)
    </text>
  </g>

  <!-- Single sheet visualization -->
  <g>
    <text x="550" y="80" font-family="Arial, sans-serif" font-size="16" text-anchor="middle" fill="#2c3e50" font-weight="bold">
      Single Gold Leaf Sheet
    </text>

    <!-- Magnifying glass -->
    <circle cx="550" cy="150" r="70" fill="none" stroke="#34495e" stroke-width="3"/>
    <line x1="605" y1="205" x2="640" y2="240" stroke="#34495e" stroke-width="6" stroke-linecap="round"/>

    <!-- Inside magnifying glass - single thin line -->
    <rect x="510" y="149" width="80" height="2" fill="#f39c12"/>
    <text x="550" y="175" font-family="Arial, sans-serif" font-size="11" text-anchor="middle" fill="#e74c3c">
      1/282,000 inch
    </text>
  </g>

  <!-- Bottom comparison -->
  <g>
    <text x="400" y="280" font-family="Arial, sans-serif" font-size="18" text-anchor="middle" fill="#2c3e50" font-weight="bold">
      One grain of gold → 50 square inch sheet!
    </text>

    <!-- Before: grain -->
    <g>
      <circle cx="200" cy="330" r="8" fill="#f39c12" stroke="#d68910" stroke-width="2"/>
      <text x="200" y="365" font-family="Arial, sans-serif" font-size="14" text-anchor="middle" fill="#2c3e50">
        1 grain
      </text>
    </g>

    <!-- Arrow -->
    <path d="M 230 330 L 350 330" stroke="#e74c3c" stroke-width="3" fill="none" marker-end="url(#arrowhead)"/>

    <!-- After: large sheet -->
    <g>
      <rect x="370" y="300" width="100" height="60" fill="#f39c12" opacity="0.7" stroke="#d68910" stroke-width="2"/>
      <text x="420" y="380" font-family="Arial, sans-serif" font-size="14" text-anchor="middle" fill="#2c3e50">
        50 sq. inch sheet
      </text>
    </g>
  </g>

  <!-- Arrow definition -->
  <defs>
    <marker id="arrowhead" markerWidth="10" markerHeight="10" refX="9" refY="3" orient="auto">
      <polygon points="0 0, 10 3, 0 6" fill="#e74c3c"/>
    </marker>
  </defs>
</svg>
